HIERARCHY
ROOT hip
{
  OFFSET 5.70873 43.8894 -1.52928
  CHANNELS 6 Xposition Yposition Zposition Zrotation Xrotation Yrotation
  JOINT abdomen
  {
    OFFSET 0 5.99393 0.287273
    CHANNELS 6 Xposition Yposition Zposition Zrotation Xrotation Yrotation
    JOINT chest
    {
      OFFSET 0 6.65865 -0.856112
      CHANNELS 6 Xposition Yposition Zposition Zrotation Xrotation Yrotation
      JOINT neck
      {
        OFFSET 0 8.65624 -1.42685
        CHANNELS 6 Xposition Yposition Zposition Zrotation Xrotation Yrotation
        JOINT head
        {
          OFFSET 0 3.80999 -0.190247
          CHANNELS 6 Xposition Yposition Zposition Zrotation Xrotation Yrotation
          End Site
          {
            OFFSET 0 0 0
          }
        }
      }
      JOINT rCollar
      {
        OFFSET -1.4963 7.5744 -1.52136
        CHANNELS 6 Xposition Yposition Zposition Zrotation Xrotation Yrotation
        JOINT rShldr
        {
          OFFSET -5.47506 -0.905672 0.485692
          CHANNELS 6 Xposition Yposition Zposition Zrotation Xrotation Yrotation
          JOINT rForeArm
          {
            OFFSET -11.3069 -0.201091 0.618544
            CHANNELS 6 Xposition Yposition Zposition Zrotation Xrotation Yrotation
            JOINT rHand
            {
              OFFSET -9.61414 -0.254739 3.48553
              CHANNELS 6 Xposition Yposition Zposition Zrotation Xrotation Yrotation
              JOINT rThumb1
              {
                OFFSET 0.176263 -0.07068 1.26622
                CHANNELS 6 Xposition Yposition Zposition Zrotation Xrotation Yrotation
                JOINT rThumb2
                {
                  OFFSET -1.04683 -0.546484 1.82182
                  CHANNELS 6 Xposition Yposition Zposition Zrotation Xrotation Yrotation
                  JOINT rThumb3
                  {
                    OFFSET -0.993472 -0.621916 0.655506
                    CHANNELS 6 Xposition Yposition Zposition Zrotation Xrotation Yrotation
                    End Site
                    {
                      OFFSET -0.996134 -0.66263 0.644615
                    }
                  }
                }
              }
              JOINT rIndex1
              {
                OFFSET -2.64253 0.566363 2.4162
                CHANNELS 6 Xposition Yposition Zposition Zrotation Xrotation Yrotation
                JOINT rIndex2
                {
                  OFFSET -1.39394 -0.635138 0.899356
                  CHANNELS 6 Xposition Yposition Zposition Zrotation Xrotation Yrotation
                  JOINT rIndex3
                  {
                    OFFSET -0.622395 -0.856016 0.402182
                    CHANNELS 6 Xposition Yposition Zposition Zrotation Xrotation Yrotation
                    End Site
                    {
                      OFFSET -0.472476 -0.801802 0.34216
                    }
                  }
                }
              }
              JOINT rMid1
              {
                OFFSET -3.20814 0.514427 1.52547
                CHANNELS 6 Xposition Yposition Zposition Zrotation Xrotation Yrotation
                JOINT rMid2
                {
                  OFFSET -1.56545 -0.497974 0.68919
                  CHANNELS 6 Xposition Yposition Zposition Zrotation Xrotation Yrotation
                  JOINT rMid3
                  {
                    OFFSET -0.679943 -1.17582 0.444246
                    CHANNELS 6 Xposition Yposition Zposition Zrotation Xrotation Yrotation
                    End Site
                    {
                      OFFSET -0.343874 -0.941341 0.267611
                    }
                  }
                }
              }
              JOINT rRing1
              {
                OFFSET -3.47877 0.200518 0.597719
                CHANNELS 6 Xposition Yposition Zposition Zrotation Xrotation Yrotation
                JOINT rRing2
                {
                  OFFSET -1.28208 -0.53155 0.44672
                  CHANNELS 6 Xposition Yposition Zposition Zrotation Xrotation Yrotation
                  JOINT rRing3
                  {
                    OFFSET -0.710288 -0.970167 0.4032
                    CHANNELS 6 Xposition Yposition Zposition Zrotation Xrotation Yrotation
                    End Site
                    {
                      OFFSET -0.403228 -0.950952 0.378354
                    }
                  }
                }
              }
              JOINT rPinky1
              {
                OFFSET -3.42483 -0.278904 -0.240415
                CHANNELS 6 Xposition Yposition Zposition Zrotation Xrotation Yrotation
                JOINT rPinky2
                {
                  OFFSET -1.05787 -0.635999 0.156459
                  CHANNELS 6 Xposition Yposition Zposition Zrotation Xrotation Yrotation
                  JOINT rPinky3
                  {
                    OFFSET -0.42815 -0.754232 0.287187
                    CHANNELS 6 Xposition Yposition Zposition Zrotation Xrotation Yrotation
                    End Site
                    {
                      OFFSET -0.235717 -0.725605 0.279416
                    }
                  }
                }
              }
            }
          }
        }
      }
      JOINT lCollar
      {
        OFFSET 1.4963 7.5744 -1.52136
        CHANNELS 6 Xposition Yposition Zposition Zrotation Xrotation Yrotation
        JOINT lShldr
        {
          OFFSET 5.47506 -0.905672 0.485692
          CHANNELS 6 Xposition Yposition Zposition Zrotation Xrotation Yrotation
          JOINT lForeArm
          {
            OFFSET 11.3069 -0.201091 0.618544
            CHANNELS 6 Xposition Yposition Zposition Zrotation Xrotation Yrotation
            JOINT lHand
            {
              OFFSET 9.61414 -0.254739 3.48553
              CHANNELS 6 Xposition Yposition Zposition Zrotation Xrotation Yrotation
              JOINT lThumb1
              {
                OFFSET -0.176263 -0.07068 1.26622
                CHANNELS 6 Xposition Yposition Zposition Zrotation Xrotation Yrotation
                JOINT lThumb2
                {
                  OFFSET 1.04683 -0.546484 1.82182
                  CHANNELS 6 Xposition Yposition Zposition Zrotation Xrotation Yrotation
                  JOINT lThumb3
                  {
                    OFFSET 0.993472 -0.621916 0.655506
                    CHANNELS 6 Xposition Yposition Zposition Zrotation Xrotation Yrotation
                    End Site
                    {
                      OFFSET 0.996134 -0.66263 0.644615
                    }
                  }
                }
              }
              JOINT lIndex1
              {
                OFFSET 2.64253 0.566363 2.4162
                CHANNELS 6 Xposition Yposition Zposition Zrotation Xrotation Yrotation
                JOINT lIndex2
                {
                  OFFSET 1.39394 -0.635138 0.899356
                  CHANNELS 6 Xposition Yposition Zposition Zrotation Xrotation Yrotation
                  JOINT lIndex3
                  {
                    OFFSET 0.622395 -0.856016 0.402182
                    CHANNELS 6 Xposition Yposition Zposition Zrotation Xrotation Yrotation
                    End Site
                    {
                      OFFSET 0.472476 -0.801802 0.34216
                    }
                  }
                }
              }
              JOINT lMid1
              {
                OFFSET 3.20814 0.514427 1.52547
                CHANNELS 6 Xposition Yposition Zposition Zrotation Xrotation Yrotation
                JOINT lMid2
                {
                  OFFSET 1.56545 -0.497974 0.68919
                  CHANNELS 6 Xposition Yposition Zposition Zrotation Xrotation Yrotation
                  JOINT lMid3
                  {
                    OFFSET 0.679943 -1.17582 0.444246
                    CHANNELS 6 Xposition Yposition Zposition Zrotation Xrotation Yrotation
                    End Site
                    {
                      OFFSET 0.343874 -0.941341 0.267611
                    }
                  }
                }
              }
              JOINT lRing1
              {
                OFFSET 3.47877 0.200518 0.597719
                CHANNELS 6 Xposition Yposition Zposition Zrotation Xrotation Yrotation
                JOINT lRing2
                {
                  OFFSET 1.28208 -0.53155 0.44672
                  CHANNELS 6 Xposition Yposition Zposition Zrotation Xrotation Yrotation
                  JOINT lRing3
                  {
                    OFFSET 0.710288 -0.970167 0.4032
                    CHANNELS 6 Xposition Yposition Zposition Zrotation Xrotation Yrotation
                    End Site
                    {
                      OFFSET 0.403228 -0.950952 0.378354
                    }
                  }
                }
              }
              JOINT lPinky1
              {
                OFFSET 3.42483 -0.278904 -0.240415
                CHANNELS 6 Xposition Yposition Zposition Zrotation Xrotation Yrotation
                JOINT lPinky2
                {
                  OFFSET 1.05787 -0.635999 0.156459
                  CHANNELS 6 Xposition Yposition Zposition Zrotation Xrotation Yrotation
                  JOINT lPinky3
                  {
                    OFFSET 0.42815 -0.754232 0.287187
                    CHANNELS 6 Xposition Yposition Zposition Zrotation Xrotation Yrotation
                    End Site
                    {
                      OFFSET 0.235717 -0.725605 0.279416
                    }
                  }
                }
              }
            }
          }
        }
      }
    }
  }
  JOINT rThigh
  {
    OFFSET -4.17848 -1.02486 0.046356
    CHANNELS 6 Xposition Yposition Zposition Zrotation Xrotation Yrotation
    JOINT rShin
    {
      OFFSET 1.27155 -17.465 -0.237699
      CHANNELS 6 Xposition Yposition Zposition Zrotation Xrotation Yrotation
      JOINT rFoot
      {
        OFFSET 0.529163 -17.3815 -1.19582
        CHANNELS 6 Xposition Yposition Zposition Zrotation Xrotation Yrotation
        JOINT rToe
        {
          OFFSET -0.711591 -4.4863 4.0596
          CHANNELS 6 Xposition Yposition Zposition Zrotation Xrotation Yrotation
          End Site
          {
            OFFSET -0.869915 -1.10655 1.99006
          }
        }
      }
    }
  }
  JOINT lThigh
  {
    OFFSET 4.17848 -1.02486 0.046356
    CHANNELS 6 Xposition Yposition Zposition Zrotation Xrotation Yrotation
    JOINT lShin
    {
      OFFSET -1.27155 -17.465 -0.237699
      CHANNELS 6 Xposition Yposition Zposition Zrotation Xrotation Yrotation
      JOINT lFoot
      {
        OFFSET -0.529163 -17.3815 -1.19582
        CHANNELS 6 Xposition Yposition Zposition Zrotation Xrotation Yrotation
        JOINT lToe
        {
          OFFSET 0.711591 -4.4863 4.0596
          CHANNELS 6 Xposition Yposition Zposition Zrotation Xrotation Yrotation
          End Site
          {
            OFFSET 0.869915 -1.10655 1.99006
          }
        }
      }
    }
  }
}
MOTION
Frames:	4
Frame Time:	0.0333333
-12.8179 41.9605 4.92483 9.34331 19.0823 -3.8368 -1.77636e-015 5.99393 0.287273 -1.93629 2.8466 -1.62776 -1.77636e-015 6.65865 -0.856112 -3.79794 5.74555 -3.16414 0 8.65624 -1.42685 -13.8649 -18.2632 25.8455 -3.55271e-015 3.80999 -0.190247 11.0435 -15.3096 19.9231 -1.4963 7.5744 -1.52136 -10.8318 -0.1501 7.22846 -5.47506 -0.905672 0.485692 58.1708 10.778 19.9939 -11.3069 -0.201091 0.618544 24.1162 43.1973 35.0597 -9.61414 -0.254739 3.48553 -20.4702 -1.25976 16.6936 0.176263 -0.07068 1.26622 -1.03294 3.27146 -8.57581 -1.04683 -0.546484 1.82182 -0.625414 0.680004 -1.89679 -0.993472 -0.621916 0.655506 -1.70966 1.97582 -5.34798 -2.64253 0.566363 2.4162 16.8352 5.81041 -7.43179 -1.39394 -0.635138 0.899356 12.4434 3.07617 -2.16559 -0.622395 -0.856016 0.402182 13.9938 3.42204 -2.47929 -3.20814 0.514427 1.52547 12.6397 5.50028 -2.83641 -1.56545 -0.497974 0.68919 15.1025 4.27382 -2.71317 -0.679943 -1.17582 0.444246 12.3302 3.55038 -2.13508 -3.47877 0.200518 0.597719 11.6058 3.495 -2.34596 -1.28208 -0.53155 0.44672 14.7072 4.64673 -3.27548 -0.710288 -0.970167 0.4032 11.9569 3.85214 -2.57848 -3.42483 -0.278904 -0.240415 11.9444 3.43918 -1.46995 -1.05787 -0.635999 0.156459 13.183 4.60342 -2.74746 -0.42815 -0.754232 0.287187 12.0259 4.20221 -2.45655 1.4963 7.5744 -1.52136 -0.319007 3.41957 -2.89257 5.47506 -0.905672 0.485692 -37.1377 3.56679 -3.65398 11.3069 -0.201091 0.618544 -40.7589 46.3865 -48.8919 9.61414 -0.254739 3.48553 31.6687 5.5162 -34.1222 -0.176263 -0.07068 1.26622 -0.0678825 -1.78042 -3.34781 1.04683 -0.546484 1.82182 -1.43189 -0.39105 -2.54068 0.993472 -0.621916 0.655506 -1.41655 -0.38694 -2.51373 2.64253 0.566363 2.4162 6.31253 -2.44588 -2.56889 1.39394 -0.635138 0.899356 6.24742 -2.24056 -2.39647 0.622395 -0.856016 0.402182 6.30546 -2.26297 -2.41793 3.20814 0.514427 1.52547 6.26014 -2.9984 -2.34273 1.56545 -0.497974 0.68919 6.3109 -2.55702 -2.42329 0.679943 -1.17582 0.444246 6.32833 -2.5646 -2.42997 3.47877 0.200518 0.597719 6.31808 -2.77397 -2.68744 1.28208 -0.53155 0.44672 6.24119 -2.79876 -2.72944 0.710288 -0.970167 0.4032 6.25867 -2.80695 -2.73673 3.42483 -0.278904 -0.240415 6.37018 -2.9431 -2.56431 1.05787 -0.635999 0.156459 6.24879 -3.01341 -2.6605 0.42815 -0.754232 0.287187 6.25368 -3.00295 -2.65837 -4.17848 -1.02486 0.046356 -10.2687 -54.0869 7.47647 1.27155 -17.465 -0.237699 7.18314 38.7537 -3.90559 0.529163 -17.3815 -1.19582 1.46686 -4.95478 1.39095 -0.711591 -4.4863 4.0596 -0.563566 -4.14706 0.0906356 4.17848 -1.02486 0.046356 -0.238973 -44.6015 -11.8308 -1.27155 -17.465 -0.237699 -0.42825 9.90923 -2.73189 -0.529163 -17.3815 -1.19582 -10.0122 10.0492 -1.36364 0.711591 -4.4863 4.0596 -0.00896509 0.0134426 -0.000661816 
-12.7917 41.8253 4.85196 10.6152 19.6185 -3.32782 8.88178e-016 5.99393 0.287273 -2.23855 1.79937 -0.967159 1.77636e-015 6.65865 -0.856112 -4.4497 3.63489 -1.86462 0 8.65624 -1.42685 -13.9627 -17.8317 24.8926 3.55271e-015 3.80999 -0.190247 12.4429 -15.8042 20.8194 -1.4963 7.5744 -1.52136 -10.3762 -0.116357 5.00965 -5.47506 -0.905672 0.485692 56.51 9.10252 15.4238 -11.3069 -0.201091 0.618544 25.7441 43.1011 36.3221 -9.61414 -0.254739 3.48553 -18.1064 -3.00939 17.0027 0.176263 -0.07068 1.26622 -1.01746 2.59787 -6.91185 -1.04683 -0.546484 1.82182 -0.710115 0.775695 -2.15863 -0.993472 -0.621916 0.655506 -1.48444 1.69344 -4.61216 -2.64253 0.566363 2.4162 14.3169 4.76821 -5.70803 -1.39394 -0.635138 0.899356 10.9876 2.74328 -1.8795 -0.622395 -0.856016 0.402182 12.1658 3.01324 -2.11062 -3.20814 0.514427 1.52547 11.1336 4.60259 -2.36984 -1.56545 -0.497974 0.68919 12.9808 3.72296 -2.26775 -0.679943 -1.17582 0.444246 10.9043 3.16668 -1.85104 -3.47877 0.200518 0.597719 10.3345 3.18433 -2.08698 -1.28208 -0.53155 0.44672 12.657 4.05755 -2.75276 -0.710288 -0.970167 0.4032 10.5983 3.4459 -2.24775 -3.42483 -0.278904 -0.240415 10.5728 3.19816 -1.4205 -1.05787 -0.635999 0.156459 11.5052 4.05945 -2.34275 -0.42815 -0.754232 0.287187 10.6333 3.77185 -2.13859 1.4963 7.5744 -1.52136 0.303545 3.42966 -3.31702 5.47506 -0.905672 0.485692 -34.0362 2.69419 -4.1238 11.3069 -0.201091 0.618544 -46.2974 46.3976 -51.5764 9.61414 -0.254739 3.48553 31.7657 8.41066 -38.0624 -0.176263 -0.07068 1.26622 -0.377115 -1.49216 -3.21769 1.04683 -0.546484 1.82182 -1.4446 -0.394208 -2.56317 0.993472 -0.621916 0.655506 -1.44107 -0.393077 -2.55706 2.64253 0.566363 2.4162 6.44157 -2.45045 -2.55925 1.39394 -0.635138 0.899356 6.40358 -2.30028 -2.45362 0.622395 -0.856016 0.402182 6.4345 -2.31237 -2.46515 3.20814 0.514427 1.52547 6.36106 -2.94516 -2.38618 1.56545 -0.497974 0.68919 6.41093 -2.59999 -2.45972 0.679943 -1.17582 0.444246 6.43794 -2.6117 -2.46989 3.47877 0.200518 0.597719 6.34577 -2.80817 -2.72509 1.28208 -0.53155 0.44672 6.29524 -2.82453 -2.75199 0.710288 -0.970167 0.4032 6.3262 -2.83916 -2.76486 3.42483 -0.278904 -0.240415 6.36191 -2.98484 -2.61127 1.05787 -0.635999 0.156459 6.28326 -3.03102 -2.6744 0.42815 -0.754232 0.287187 6.27669 -3.02764 -2.67137 -4.17848 -1.02486 0.046356 -14.3263 -55.5454 3.55483 1.27155 -17.465 -0.237699 8.08033 40.6386 -4.51348 0.529163 -17.3815 -1.19582 1.33389 -5.76409 2.64849 -0.711591 -4.4863 4.0596 -0.64474 -4.74639 0.100408 4.17848 -1.02486 0.046356 -2.47228 -45.3565 -13.7454 -1.27155 -17.465 -0.237699 -0.42473 9.74277 -2.64473 -0.529163 -17.3815 -1.19582 -10.1651 10.3735 -1.1305 0.711591 -4.4863 4.0596 -0.00152425 -0.0478704 0.00242998 
-12.7622 41.6769 4.77867 11.4461 19.9771 -2.50728 8.88178e-016 5.99393 0.287273 -2.37979 0.79267 -0.311526 -1.77636e-015 6.65865 -0.856112 -4.75593 1.59758 -0.58995 1.77636e-015 8.65624 -1.42685 -13.9035 -16.7833 23.8469 0 3.80999 -0.190247 13.6363 -16.333 21.5294 -1.4963 7.5744 -1.52136 -10.0084 -0.0811905 2.81876 -5.47506 -0.905672 0.485692 54.9971 7.58916 11.0292 -11.3069 -0.201091 0.618544 26.1673 42.7159 36.9272 -9.61414 -0.254739 3.48553 -15.6497 -6.81712 16.6742 0.176263 -0.07068 1.26622 -0.986831 1.96848 -5.3119 -1.04683 -0.546484 1.82182 -0.781501 0.857027 -2.38025 -0.993472 -0.621916 0.655506 -1.25561 1.41392 -3.87535 -2.64253 0.566363 2.4162 11.7355 3.72384 -4.03357 -1.39394 -0.635138 0.899356 9.45503 2.3846 -1.58726 -0.622395 -0.856016 0.402182 10.261 2.5742 -1.74006 -3.20814 0.514427 1.52547 9.54818 3.68681 -1.89984 -1.56545 -0.497974 0.68919 10.7871 3.13491 -1.82815 -0.679943 -1.17582 0.444246 9.39352 2.7519 -1.56022 -3.47877 0.200518 0.597719 8.97385 2.83189 -1.80645 -1.28208 -0.53155 0.44672 10.5352 3.42632 -2.23297 -0.710288 -0.970167 0.4032 9.16414 3.00775 -1.90862 -3.42483 -0.278904 -0.240415 9.11272 2.91164 -1.35139 -1.05787 -0.635999 0.156459 9.74869 3.47583 -1.93542 -0.42815 -0.754232 0.287187 9.1643 3.27288 -1.80153 1.4963 7.5744 -1.52136 0.647608 3.135 -3.77836 5.47506 -0.905672 0.485692 -29.2474 0.813851 -4.92298 11.3069 -0.201091 0.618544 -52.4695 46.1493 -54.6005 9.61414 -0.254739 3.48553 31.3198 11.2808 -43.8058 -0.176263 -0.07068 1.26622 -0.685197 -1.21233 -3.10026 1.04683 -0.546484 1.82182 -1.47218 -0.401068 -2.61191 0.993472 -0.621916 0.655506 -1.4656 -0.399158 -2.60043 2.64253 0.566363 2.4162 6.59378 -2.46802 -2.57148 1.39394 -0.635138 0.899356 6.58316 -2.3692 -2.51917 0.622395 -0.856016 0.402182 6.6022 -2.37672 -2.52634 3.20814 0.514427 1.52547 6.49426 -2.90755 -2.44439 1.56545 -0.497974 0.68919 6.53806 -2.65473 -2.50592 0.679943 -1.17582 0.444246 6.54754 -2.65888 -2.5097 3.47877 0.200518 0.597719 6.41508 -2.85766 -2.77409 1.28208 -0.53155 0.44672 6.38423 -2.86701 -2.78903 0.710288 -0.970167 0.4032 6.39374 -2.8714 -2.79298 3.42483 -0.278904 -0.240415 6.40156 -3.04162 -2.66541 1.05787 -0.635999 0.156459 6.3576 -3.06893 -2.70436 0.42815 -0.754232 0.287187 6.35447 -3.06738 -2.70272 -4.17848 -1.02486 0.046356 -18.1637 -56.5689 -0.452623 1.27155 -17.465 -0.237699 8.88094 42.4643 -5.12785 0.529163 -17.3815 -1.19582 1.13761 -6.56703 3.76512 -0.711591 -4.4863 4.0596 -0.655151 -4.82319 0.101609 4.17848 -1.02486 0.046356 -4.58567 -46.2602 -15.454 -1.27155 -17.465 -0.237699 -0.39482 10.5013 -2.68048 -0.529163 -17.3815 -1.19582 -10.1735 10.0402 -1.2867 0.711591 -4.4863 4.0596 0.0314694 -0.317288 0.0160681 
-12.7222 41.5333 4.73771 11.853 20.0627 -1.4139 0 5.99393 0.287273 -2.36773 -0.166506 0.238313 8.88178e-016 6.65865 -0.856112 -4.73478 -0.342739 0.469549 0 8.65624 -1.42685 -13.7601 -15.2014 22.8825 0 3.80999 -0.190247 14.8345 -16.8686 22.3399 -1.4963 7.5744 -1.52136 -9.87752 -0.0487681 0.770546 -5.47506 -0.905672 0.485692 53.71 6.20045 7.58296 -11.3069 -0.201091 0.618544 25.1272 42.0722 36.7913 -9.61414 -0.254739 3.48553 -13.2304 -10.6532 15.2422 0.176263 -0.07068 1.26622 -0.942526 1.4524 -3.97096 -1.04683 -0.546484 1.82182 -0.835763 0.919272 -2.54929 -0.993472 -0.621916 0.655506 -1.06498 1.18653 -3.26929 -2.64253 0.566363 2.4162 9.28924 2.76342 -2.5801 -1.39394 -0.635138 0.899356 7.95686 2.02601 -1.31064 -0.622395 -0.856016 0.402182 8.42401 2.13857 -1.39617 -3.20814 0.514427 1.52547 8.0013 2.83567 -1.46799 -1.56545 -0.497974 0.68919 8.69432 2.55721 -1.42928 -0.679943 -1.17582 0.444246 7.90996 2.33651 -1.28502 -3.47877 0.200518 0.597719 7.62829 2.46504 -1.52862 -1.28208 -0.53155 0.44672 8.50973 2.80423 -1.75774 -0.710288 -0.970167 0.4032 7.73313 2.56127 -1.5807 -3.42483 -0.278904 -0.240415 7.68124 2.59445 -1.25802 -1.05787 -0.635999 0.156459 8.04992 2.89812 -1.55782 -0.42815 -0.754232 0.287187 7.699 2.76548 -1.47752 1.4963 7.5744 -1.52136 1.19106 2.63677 -4.19833 5.47506 -0.905672 0.485692 -23.046 -2.29473 -5.8507 11.3069 -0.201091 0.618544 -57.7171 45.8823 -58.6319 9.61414 -0.254739 3.48553 29.7143 12.1636 -50.0339 -0.176263 -0.07068 1.26622 -0.988354 -0.942033 -2.99033 1.04683 -0.546484 1.82182 -1.49977 -0.40789 -2.66065 0.993472 -0.621916 0.655506 -1.49919 -0.407487 -2.65978 2.64253 0.566363 2.4162 6.7669 -2.49827 -2.60379 1.39394 -0.635138 0.899356 6.76267 -2.43828 -2.58452 0.622395 -0.856016 0.402182 6.76983 -2.44128 -2.58734 3.20814 0.514427 1.52547 6.65626 -2.8848 -2.51532 1.56545 -0.497974 0.68919 6.69095 -2.7207 -2.56134 0.679943 -1.17582 0.444246 6.70176 -2.73844 -2.57323 3.47877 0.200518 0.597719 6.52126 -2.92234 -2.83324 1.28208 -0.53155 0.44672 6.50756 -2.92596 -2.84029 0.710288 -0.970167 0.4032 6.51178 -2.92786 -2.84203 3.42483 -0.278904 -0.240415 6.48718 -3.11278 -2.73095 1.05787 -0.635999 0.156459 6.46718 -3.12501 -2.74846 0.42815 -0.754232 0.287187 6.4754 -3.12682 -2.75069 -4.17848 -1.02486 0.046356 -21.4256 -56.9953 -3.90832 1.27155 -17.465 -0.237699 9.64552 44.1113 -5.72889 0.529163 -17.3815 -1.19582 0.959376 -7.42213 4.39025 -0.711591 -4.4863 4.0596 -0.62003 -4.56376 0.0975307 4.17848 -1.02486 0.046356 -6.49266 -46.978 -16.9538 -1.27155 -17.465 -0.237699 -0.360826 11.5072 -2.79858 -0.529163 -17.3815 -1.19582 -10.1094 9.93896 -1.73484 0.711591 -4.4863 4.0596 0.087439 -0.772579 0.0394787 
